# xmcd
#
# Track frame offsets: 
#        182
#        17655
#        37142
#        53610
#        67377
#        86800
#        101517
#        116390
#        131685
#        149887
#
# Disc length: 2212 seconds
#
# Revision: 2
# Processed by: cddbd v1.5.2PL0 Copyright (c) Steve Scherf et al.
# Submitted via: ExactAudioCopy v0.99pb3
#
DISCID=9608a20a
DTITLE=Mila Mason - The Strong One
DYEAR=1998
DGENRE=
TTITLE0=This Heart
TTITLE1=Closer To Heaven
TTITLE2=The Strong One
TTITLE3=Don't Maybe Me
TTITLE4=Let Me Cry
TTITLE5=Bossa' My Heart
TTITLE6=One Thing Led To Another
TTITLE7=You And Only You
TTITLE8=10 lb. Heart
TTITLE9=Blood Simple
EXTD=
EXTT0=
EXTT1=
EXTT2=
EXTT3=
EXTT4=
EXTT5=
EXTT6=
EXTT7=
EXTT8=
EXTT9=
PLAYORDER=
